HIERARCHY
ROOT Hips
{
  OFFSET 0.0000 0.0000 0.0000
  CHANNELS 6 Xposition Yposition Zposition Zrotation Xrotation Yrotation
  JOINT LeftHip
  {
    OFFSET 3.7500 0.0000 -0.0000
    CHANNELS 3 Zrotation Xrotation Yrotation
    JOINT LeftKnee
    {
      OFFSET -0.0000 -15.5000 -0.0000
      CHANNELS 3 Zrotation Xrotation Yrotation
      JOINT LeftAnkle
      {
        OFFSET -0.0000 -15.5000 0.0000
        CHANNELS 3 Zrotation Xrotation Yrotation
        End Site
        {
          OFFSET 0.0000 -2.5296 0.0000
        }
      }
    }
  }
  JOINT RightHip
  {
    OFFSET -3.7500 0.0000 0.0000
    CHANNELS 3 Zrotation Xrotation Yrotation
    JOINT RightKnee
    {
      OFFSET 0.0000 -15.5000 -0.0000
      CHANNELS 3 Zrotation Xrotation Yrotation
      JOINT RightAnkle
      {
        OFFSET 0.0000 -15.5000 0.0000
        CHANNELS 3 Zrotation Xrotation Yrotation
        End Site
        {
          OFFSET 0.0000 -2.5296 0.0000
        }
      }
    }
  }
  JOINT Chest
  {
    OFFSET -0.0000 4.5700 0.0000
    CHANNELS 3 Zrotation Xrotation Yrotation
    JOINT Chest2
    {
      OFFSET -0.0000 8.1184 -0.0000
      CHANNELS 3 Zrotation Xrotation Yrotation
      JOINT LeftCollar
      {
        OFFSET 1.5000 9.7058 0.5000
        CHANNELS 3 Zrotation Xrotation Yrotation
        JOINT LeftShoulder
        {
          OFFSET 5.2500 0.0000 0.0000
          CHANNELS 3 Zrotation Xrotation Yrotation
          JOINT LeftElbow
          {
            OFFSET 0.0000 -11.0000 0.0000
            CHANNELS 3 Zrotation Xrotation Yrotation
            JOINT LeftWrist
            {
              OFFSET 0.0000 -9.8200 -0.0000
              CHANNELS 3 Zrotation Xrotation Yrotation
              End Site
              {
                OFFSET 0.0000 -7.0000 0.0000
              }
            }
          }
        }
      }
      JOINT RightCollar
      {
        OFFSET -1.5000 9.7058 0.5000
        CHANNELS 3 Zrotation Xrotation Yrotation
        JOINT RightShoulder
        {
          OFFSET -5.2500 -0.0000 0.0000
          CHANNELS 3 Zrotation Xrotation Yrotation
          JOINT RightElbow
          {
            OFFSET 0.0000 -11.0000 0.0000
            CHANNELS 3 Zrotation Xrotation Yrotation
            JOINT RightWrist
            {
              OFFSET 0.0000 -9.8200 0.0000
              CHANNELS 3 Zrotation Xrotation Yrotation
              End Site
              {
                OFFSET -0.0000 -7.0000 0.0000
              }
            }
          }
        }
      }
      JOINT Neck
      {
        OFFSET 0.0000 9.5000 -0.0000
        CHANNELS 3 Zrotation Xrotation Yrotation
        JOINT Head
        {
          OFFSET 0.0000 5.2180 0.0000
          CHANNELS 3 Zrotation Xrotation Yrotation
          End Site
          {
            OFFSET 0.0000 4.1400 0.0000
          }
        }
      }
    }
  }
}
MOTION
Frames:	15
Frame Time:	0.033333
-1.1867 34.3017 101.1998 -1.02 0.11 149.24 16.54 -17.88 18.54 -6.08 58.34 19.37 -0.26 -4.51 0.14 0.98 -18.04 -2.40 -0.42 28.91 -16.62 -1.41 -12.34 -0.18 0.81 -1.01 -4.47 -4.80 12.34 -3.67 -27.64 3.12 -0.53 42.04 -10.33 4.74 15.60 -83.19 14.50 -13.30 5.07 47.49 20.12 0.78 -4.15 -61.28 -36.05 64.45 -141.42 -61.05 -143.49 -15.71 32.40 -37.12 6.86 22.25 4.65 -9.31 -21.02 21.08 
-1.1867 34.3017 101.1998 -1.02 0.11 149.24 16.54 -17.88 18.54 -6.08 58.34 19.37 -0.26 -4.51 0.14 0.98 -18.04 -2.40 -0.42 28.91 -16.62 -1.41 -12.34 -0.18 0.81 -1.01 -4.47 -4.80 12.34 -3.67 -27.64 3.12 -0.53 42.04 -10.33 4.74 15.60 -83.19 14.50 -13.30 5.07 47.49 20.12 0.78 -4.15 -61.28 -36.05 64.45 -141.42 -61.05 -143.49 -15.71 32.40 -37.12 6.86 22.25 4.65 -9.31 -21.02 21.08 
-1.1556 34.2741 101.0503 -1.51 0.45 148.31 17.76 -20.72 20.59 -9.01 60.72 18.24 -0.68 -4.14 0.09 0.35 -18.22 -2.69 -0.71 29.67 -14.85 -0.40 -13.77 -0.12 1.17 -0.63 -4.45 -5.98 12.71 -3.40 -27.62 3.17 -0.64 42.65 -10.75 5.38 18.55 -84.24 17.45 -13.59 6.00 47.92 19.88 0.85 -3.95 -60.98 -36.80 63.87 -142.07 -60.81 -144.18 -15.97 32.59 -36.46 6.76 22.30 4.65 -9.41 -21.31 20.97 
-1.1359 34.2392 100.9024 -1.94 0.71 147.50 18.97 -23.11 22.44 -11.67 61.27 17.28 -0.83 -3.52 0.03 -0.26 -18.56 -2.99 -0.92 30.63 -13.43 0.32 -14.75 -0.06 1.47 -0.10 -4.50 -6.98 12.95 -3.21 -27.57 3.20 -0.71 43.10 -11.06 6.01 22.36 -85.14 21.26 -13.98 6.50 47.91 19.68 0.93 -3.72 -60.81 -37.45 63.39 -142.72 -60.47 -144.88 -16.42 32.69 -35.81 6.78 22.41 4.72 -9.68 -21.73 21.20 
-1.1245 34.1734 100.7920 -2.31 0.62 146.85 20.36 -25.43 24.02 -13.50 59.99 16.96 -1.15 -2.99 -0.02 -0.62 -19.35 -3.11 -1.04 31.87 -12.59 0.64 -15.46 -0.03 1.81 0.30 -4.66 -7.86 13.18 -3.13 -27.38 3.20 -0.74 43.38 -11.44 6.74 26.91 -85.97 25.80 -14.14 6.89 47.52 19.71 1.12 -3.22 -61.17 -37.99 62.69 -143.39 -59.99 -145.64 -17.30 33.15 -34.73 6.82 22.81 4.88 -9.96 -22.69 21.70 
-1.1189 34.0693 100.6829 -2.50 0.47 146.60 21.60 -27.47 24.95 -13.97 57.06 17.32 -1.90 -2.75 -0.06 -0.80 -20.20 -3.18 -1.11 33.36 -12.29 0.70 -16.25 -0.02 2.30 0.94 -5.03 -8.70 13.23 -3.23 -27.26 3.16 -0.69 43.84 -11.90 7.54 33.95 -86.83 32.84 -14.14 7.55 47.28 19.74 1.28 -2.80 -61.49 -38.56 62.48 -143.81 -59.52 -146.14 -19.54 33.53 -31.65 6.61 23.65 5.20 -9.96 -24.37 22.46 
-1.1246 33.9310 100.5737 -2.59 0.32 146.58 22.35 -28.97 25.09 -13.16 52.23 17.77 -1.88 -2.73 -0.11 -0.95 -21.17 -3.27 -1.15 35.21 -12.25 1.04 -17.17 0.03 2.70 1.77 -5.53 -9.33 13.28 -3.47 -27.34 3.18 -0.72 44.57 -12.37 8.54 46.05 -87.63 44.93 -14.44 8.21 47.19 19.62 1.30 -2.72 -61.49 -39.40 62.71 -144.01 -59.26 -146.40 -21.97 33.28 -28.45 6.44 24.31 5.42 -9.76 -25.81 22.95 
-1.1474 33.7384 100.4675 -2.66 0.01 146.41 22.79 -29.86 24.63 -11.63 45.59 18.06 -1.91 -2.68 -0.16 -1.07 -22.58 -3.38 -1.12 37.59 -12.08 0.97 -18.24 0.04 3.12 2.63 -6.00 -9.93 13.15 -3.68 -27.49 3.32 -0.99 45.60 -12.48 9.85 71.70 -88.27 70.58 -15.01 8.76 46.52 19.36 1.37 -2.52 -61.21 -40.15 62.53 -144.35 -59.18 -146.73 -23.20 32.72 -27.42 6.64 24.76 5.31 -9.98 -26.77 22.84 
-1.2027 33.4867 100.3398 -2.67 -0.32 145.76 23.08 -30.02 23.69 -9.79 37.87 18.18 -2.65 -2.25 -0.21 -1.25 -24.17 -3.59 -0.96 40.25 -11.44 -0.18 -19.64 -0.07 3.68 3.41 -6.34 -10.73 13.22 -3.66 -27.57 3.48 -1.32 46.77 -12.72 11.41 112.48 -88.39 111.35 -15.28 9.38 46.95 18.99 1.49 -2.12 -60.77 -41.14 61.69 -144.84 -59.37 -147.15 -23.15 32.32 -28.21 6.54 25.22 5.39 -10.05 -28.05 22.94 
-1.3001 33.1685 100.1950 -2.68 -0.84 144.56 23.46 -29.83 22.49 -7.58 29.96 18.67 -3.19 -1.73 -0.21 -1.30 -26.24 -3.64 -0.87 43.35 -10.40 -1.15 -21.11 -0.18 4.29 3.94 -6.52 -11.58 13.63 -3.43 -27.60 3.49 -1.34 47.79 -13.43 12.99 144.68 -87.79 143.54 -15.43 10.13 48.15 18.44 1.61 -1.74 -60.29 -42.60 60.50 -145.58 -59.57 -147.79 -22.47 32.27 -29.41 5.98 25.56 5.71 -9.62 -29.88 23.21 
-1.4209 32.8055 100.0008 -2.77 -1.43 143.07 24.06 -29.59 21.26 -5.25 22.87 19.96 -4.39 -0.91 -0.13 -1.25 -28.60 -3.45 -1.08 46.78 -9.13 -0.81 -22.54 -0.14 4.70 4.25 -6.58 -12.37 14.31 -3.10 -27.67 3.40 -1.14 48.79 -14.30 14.64 160.64 -86.78 159.49 -15.69 10.71 48.36 17.82 1.69 -1.41 -59.78 -44.14 59.46 -146.37 -59.60 -148.52 -22.72 32.52 -28.92 5.39 25.65 6.12 -9.15 -31.77 23.66 
-1.5664 32.4243 99.7437 -2.94 -2.04 141.46 24.88 -29.33 20.36 -3.25 17.21 21.56 -5.10 -0.07 -0.02 -1.42 -31.04 -3.38 -1.39 50.34 -7.39 0.33 -23.87 0.06 4.94 4.55 -6.57 -13.06 14.99 -2.74 -27.93 3.30 -0.85 49.91 -15.11 16.30 168.72 -85.55 167.54 -15.95 10.98 48.34 17.26 1.70 -1.28 -59.24 -45.74 58.65 -147.09 -59.67 -149.18 -23.47 32.81 -27.19 4.95 25.44 6.53 -8.85 -33.37 24.26 
-1.7397 32.0388 99.4603 -3.10 -2.84 139.81 26.28 -29.32 20.57 -2.05 13.63 22.79 -4.61 0.18 0.03 -1.63 -33.44 -3.41 -1.48 53.56 -5.61 1.01 -25.10 0.23 5.28 4.96 -6.57 -13.73 15.31 -2.41 -28.13 3.18 -0.57 50.92 -15.72 18.09 173.91 -84.14 172.70 -16.24 11.35 48.63 16.67 1.71 -1.14 -58.36 -47.28 57.94 -147.81 -59.83 -149.81 -23.39 33.07 -26.35 4.58 25.13 6.96 -8.67 -34.72 25.01 
-1.9391 31.7232 99.1600 -3.23 -3.59 138.45 27.93 -29.74 21.65 -1.78 12.70 23.36 -4.22 0.30 0.03 -1.92 -35.56 -3.42 -1.71 56.39 -3.86 1.99 -25.86 0.46 5.61 5.21 -6.97 -14.32 15.95 -2.43 -28.38 2.96 -0.05 51.92 -16.57 20.61 177.90 -83.20 176.65 -16.74 11.34 48.94 15.60 1.84 -0.56 -56.59 -49.08 57.29 -148.32 -60.60 -150.11 -22.14 32.51 -27.89 3.43 24.52 7.80 -7.77 -35.88 26.30 
-2.1763 31.5000 98.8336 -3.41 -4.17 137.19 29.40 -30.33 23.10 -2.11 13.72 23.72 -4.27 0.45 0.03 -2.31 -37.29 -3.34 -2.27 58.57 -1.96 3.21 -26.07 0.71 5.69 5.72 -7.14 -14.77 16.47 -2.28 -28.63 2.83 0.28 52.95 -17.81 22.85 -179.04 -82.93 179.69 -17.01 11.05 49.22 14.75 1.88 -0.26 -55.03 -50.45 56.87 -148.59 -61.36 -150.20 -21.64 31.51 -28.32 2.54 23.96 8.39 -7.10 -37.00 27.16 
